<svg width="241" height="240" viewBox="0 0 241 240" fill="none" xmlns="http://www.w3.org/2000/svg">
<circle cx="120.623" cy="120" r="120" fill="url(#paint0_linear_1856_16133)"/>
<path d="M116.791 132.26L126.035 131.664L125.341 97.8236L109.118 94.6593L94.0506 98.2339L85.6775 103.018L94.9387 117.634L116.791 132.26Z" fill="#FFC700" stroke="black" stroke-width="3.89968" stroke-linejoin="round"/>
<path d="M116.791 132.261L126.035 131.665L125.34 97.8243L109.118 94.66L97.403 103.403L106.421 110.063L113.96 112.839L116.791 132.261Z" fill="#F6FFBE" stroke="black" stroke-width="3.89968" stroke-linejoin="round"/>
<path d="M136.657 97.0013L120.472 102.534L109.382 91.3938L106.084 74.1726L106.878 64.182L113.649 65.4825L129.575 72.1591L141.191 89.2237L136.657 97.0013Z" fill="#FFE3C9" stroke="black" stroke-width="3.89968" stroke-linejoin="round"/>
<path d="M136.656 97.0015L120.472 102.534L109.382 91.394L113.599 76.7689L115.717 72.8258L127.341 73.1955L130.19 75.0817L141.191 89.2239L136.656 97.0015Z" fill="#FF5C39" stroke="black" stroke-width="3.89968" stroke-linejoin="round"/>
<path d="M131.841 77.983L133.283 88.0134L143.602 96.2539L163.753 75.6827L156.577 64.2236L137.111 54.407L131.841 77.983Z" fill="#70699A" stroke="black" stroke-width="3.89968" stroke-linejoin="round"/>
<path d="M163.753 75.6828L156.578 64.2237L149.237 64.7967L147.612 85.1347L133.283 88.0135L143.602 96.254L163.753 75.6828Z" fill="#BBC9C6" stroke="black" stroke-width="3.89968" stroke-linejoin="round"/>
<path d="M189.297 76.8004L183.984 98.7179L161.489 86.7519L163.158 75.7582L167.349 67.7858L180.44 54.8929L187.5 67.1033L189.297 76.8004Z" fill="#FFE3C9" stroke="black" stroke-width="3.73544" stroke-linejoin="round"/>
<path d="M189.297 76.8004L183.984 98.7179L161.489 86.7519L167.813 85.5796L179.491 74.4752L180.44 54.8929L187.5 67.1033L189.297 76.8004Z" fill="#FF5C39" stroke="black" stroke-width="3.73544" stroke-linejoin="round"/>
<path d="M111.828 136.842L107.219 152.19L87.7049 143.811L89.1527 136.112L92.7882 130.53L104.145 121.502L110.269 130.052L111.828 136.842Z" fill="#FFE3C9" stroke="black" stroke-width="3.24038" stroke-linejoin="round"/>
<path d="M111.828 136.842L107.219 152.19L87.7049 143.811L93.1913 142.99L103.321 135.214L104.145 121.502L110.269 130.052L111.828 136.842Z" fill="#FF5C39" stroke="black" stroke-width="3.24038" stroke-linejoin="round"/>
<path d="M158.966 185.016C128.16 185.016 103.186 160.042 103.186 129.236C103.186 98.429 128.16 78.3916 158.966 78.3916C174.712 78.3916 192.495 93.5202 196.042 103.917C206.308 134.005 218.564 147.227 200.2 168.437C192.38 178.895 178.491 185.016 158.966 185.016Z" fill="#FF5C39" stroke="black" stroke-width="3.89968" stroke-linejoin="round"/>
<path d="M128.993 118.801C128.993 111.886 134.599 106.28 141.514 106.28H146.389C155.997 106.28 163.785 114.068 163.785 123.676V131.322H141.514C134.599 131.322 128.993 125.716 128.993 118.801V118.801Z" fill="white" stroke="black" stroke-width="3.90218" stroke-linejoin="round"/>
<circle cx="147.872" cy="120.761" r="3.37817" fill="black"/>
<path d="M171.19 118.801C171.19 111.886 176.796 106.28 183.711 106.28H188.586C198.194 106.28 205.982 114.068 205.982 123.676V131.322H183.711C176.796 131.322 171.19 125.716 171.19 118.801V118.801Z" fill="white" stroke="black" stroke-width="3.90218" stroke-linejoin="round"/>
<circle cx="190.068" cy="120.761" r="3.37817" fill="black"/>
<rect x="135.14" y="144.44" width="73.0742" height="14.2251" rx="7.11253" fill="white" stroke="black" stroke-width="3.90218"/>
<path d="M150.158 144.577V157.857" stroke="black" stroke-width="3.90218"/>
<path d="M164.504 144.577V157.857" stroke="black" stroke-width="3.90218"/>
<path d="M178.85 144.577V157.857" stroke="black" stroke-width="3.90218"/>
<path d="M193.196 144.577V157.857" stroke="black" stroke-width="3.90218"/>
<rect x="49.7825" y="105.331" width="17.3841" height="68.8872" transform="rotate(-30 49.7825 105.331)" fill="#FFC700" stroke="black" stroke-width="3.89968" stroke-linejoin="round"/>
<rect width="27.305" height="24.0422" transform="matrix(0.866025 -0.5 -0.5 -0.866025 45.4866 107.811)" fill="#FF5C39" stroke="black" stroke-width="3.89968" stroke-linejoin="round"/>
<path d="M21.6623 127.996C19.3513 109.665 29.5398 92.4749 34.8592 89.4037L43.3938 104.186C36.076 108.411 31.431 123.294 30.4122 129.983L21.6623 127.996Z" fill="#FF5C39" stroke="black" stroke-width="3.89968" stroke-linejoin="round"/>
<path d="M98.5259 83.6182C83.8067 72.4515 63.8252 72.6799 58.5058 75.751L67.0405 90.5335C74.3583 86.3086 89.57 89.7275 95.8721 92.1896L98.5259 83.6182Z" fill="#FF5C39" stroke="black" stroke-width="3.89968" stroke-linejoin="round"/>
<path d="M47.6214 81.069L56.3991 76.0012L54.9855 100.07L46.2079 105.138L47.6214 81.069Z" fill="white"/>
<defs>
<linearGradient id="paint0_linear_1856_16133" x1="240.623" y1="119.481" x2="8.93498" y2="126.753" gradientUnits="userSpaceOnUse">
<stop stop-color="#FF1111"/>
<stop offset="1" stop-color="#FFE350"/>
</linearGradient>
</defs>
</svg>
