<svg width="241" height="240" viewBox="0 0 241 240" fill="none" xmlns="http://www.w3.org/2000/svg">
<circle cx="120.468" cy="120" r="120" fill="url(#paint0_linear_1856_16134)"/>
<path d="M116.635 132.26L125.879 131.664L125.185 97.8236L108.963 94.6593L93.8948 98.2339L85.5218 103.018L94.783 117.634L116.635 132.26Z" fill="#7348EE" stroke="black" stroke-width="3.89968" stroke-linejoin="round"/>
<path d="M116.635 132.261L125.879 131.665L125.185 97.8243L108.962 94.66L97.2472 103.403L106.265 110.063L113.804 112.839L116.635 132.261Z" fill="#BDBBC9" stroke="black" stroke-width="3.89968" stroke-linejoin="round"/>
<path d="M136.501 97.0013L120.316 102.534L109.226 91.3938L105.928 74.1726L106.722 64.182L113.493 65.4825L129.42 72.1591L141.035 89.2237L136.501 97.0013Z" fill="#8A88EE" stroke="black" stroke-width="3.89968" stroke-linejoin="round"/>
<path d="M136.501 97.0015L120.316 102.534L109.226 91.394L113.443 76.7689L115.561 72.8258L127.185 73.1955L130.034 75.0817L141.035 89.2239L136.501 97.0015Z" fill="#58C65C" stroke="black" stroke-width="3.89968" stroke-linejoin="round"/>
<path d="M131.685 77.983L133.127 88.0134L143.446 96.2539L163.597 75.6827L156.422 64.2236L136.956 54.407L131.685 77.983Z" fill="#70699A" stroke="black" stroke-width="3.89968" stroke-linejoin="round"/>
<path d="M163.598 75.6828L156.422 64.2237L149.081 64.7967L147.456 85.1347L133.127 88.0135L143.446 96.254L163.598 75.6828Z" fill="#BDBBC9" stroke="black" stroke-width="3.89968" stroke-linejoin="round"/>
<path d="M189.142 76.8004L183.828 98.7179L161.333 86.7519L163.002 75.7582L167.193 67.7858L180.285 54.8929L187.344 67.1033L189.142 76.8004Z" fill="#8A88EE" stroke="black" stroke-width="3.73544" stroke-linejoin="round"/>
<path d="M189.142 76.8004L183.828 98.7179L161.333 86.7519L167.657 85.5796L179.335 74.4752L180.285 54.8929L187.344 67.1033L189.142 76.8004Z" fill="#58C65C" stroke="black" stroke-width="3.73544" stroke-linejoin="round"/>
<path d="M111.672 136.842L107.063 152.19L87.5492 143.811L88.9969 136.112L92.6324 130.53L103.989 121.502L110.113 130.052L111.672 136.842Z" fill="#8A88EE" stroke="black" stroke-width="3.24038" stroke-linejoin="round"/>
<path d="M111.672 136.842L107.063 152.19L87.5492 143.811L93.0355 142.99L103.165 135.214L103.989 121.502L110.113 130.052L111.672 136.842Z" fill="#58C65C" stroke="black" stroke-width="3.24038" stroke-linejoin="round"/>
<path d="M158.811 185.016C128.004 185.016 103.031 160.042 103.031 129.236C103.031 98.429 128.004 78.3916 158.811 78.3916C174.557 78.3916 192.339 93.5202 195.886 103.917C206.152 134.005 218.408 147.227 200.045 168.437C192.224 178.895 178.335 185.016 158.811 185.016Z" fill="#58C65C" stroke="black" stroke-width="3.89968" stroke-linejoin="round"/>
<path d="M128.837 118.801C128.837 111.886 134.443 106.28 141.358 106.28H146.233C155.841 106.28 163.63 114.068 163.63 123.676V131.322H141.358C134.443 131.322 128.837 125.716 128.837 118.801V118.801Z" fill="white" stroke="black" stroke-width="3.90218" stroke-linejoin="round"/>
<circle cx="147.716" cy="120.761" r="3.37817" fill="black"/>
<path d="M171.034 118.801C171.034 111.886 176.64 106.28 183.555 106.28H188.43C198.038 106.28 205.827 114.068 205.827 123.676V131.322H183.555C176.64 131.322 171.034 125.716 171.034 118.801V118.801Z" fill="white" stroke="black" stroke-width="3.90218" stroke-linejoin="round"/>
<circle cx="189.912" cy="120.761" r="3.37817" fill="black"/>
<rect x="134.984" y="144.44" width="73.0742" height="14.2251" rx="7.11253" fill="white" stroke="black" stroke-width="3.90218"/>
<path d="M150.002 144.577V157.857" stroke="black" stroke-width="3.90218"/>
<path d="M164.348 144.577V157.857" stroke="black" stroke-width="3.90218"/>
<path d="M178.695 144.577V157.857" stroke="black" stroke-width="3.90218"/>
<path d="M193.041 144.577V157.857" stroke="black" stroke-width="3.90218"/>
<rect x="49.6267" y="105.331" width="17.3841" height="68.8872" transform="rotate(-30 49.6267 105.331)" fill="#7348EE" stroke="black" stroke-width="3.89968" stroke-linejoin="round"/>
<rect width="27.305" height="24.0422" transform="matrix(0.866025 -0.5 -0.5 -0.866025 45.3308 107.811)" fill="#58C65C" stroke="black" stroke-width="3.89968" stroke-linejoin="round"/>
<path d="M21.5066 127.996C19.1955 109.665 29.384 92.4749 34.7034 89.4037L43.238 104.186C35.9202 108.411 31.2752 123.294 30.2565 129.983L21.5066 127.996Z" fill="#58C65C" stroke="black" stroke-width="3.89968" stroke-linejoin="round"/>
<path d="M98.3701 83.6182C83.6509 72.4515 63.6694 72.6799 58.3501 75.751L66.8847 90.5335C74.2025 86.3086 89.4143 89.7275 95.7164 92.1896L98.3701 83.6182Z" fill="#58C65C" stroke="black" stroke-width="3.89968" stroke-linejoin="round"/>
<path d="M47.4657 81.069L56.2433 76.0012L54.8298 100.07L46.0521 105.138L47.4657 81.069Z" fill="white"/>
<defs>
<linearGradient id="paint0_linear_1856_16134" x1="240.468" y1="119.481" x2="0.467528" y2="119.481" gradientUnits="userSpaceOnUse">
<stop stop-color="#8DC90D"/>
<stop offset="1" stop-color="#67E4FF"/>
</linearGradient>
</defs>
</svg>
