<svg width="241" height="240" viewBox="0 0 241 240" fill="none" xmlns="http://www.w3.org/2000/svg">
<circle cx="120.156" cy="120" r="120" fill="url(#paint0_linear_1856_16135)"/>
<path d="M116.324 132.26L125.567 131.664L124.873 97.8236L108.651 94.6593L93.583 98.2339L85.21 103.018L94.4712 117.634L116.324 132.26Z" fill="#5BCEE7" stroke="black" stroke-width="3.89968" stroke-linejoin="round"/>
<path d="M116.323 132.261L125.567 131.665L124.873 97.8243L108.651 94.66L96.9355 103.403L105.953 110.063L113.493 112.839L116.323 132.261Z" fill="#BEFFE4" stroke="black" stroke-width="3.89968" stroke-linejoin="round"/>
<path d="M136.189 97.0013L120.005 102.534L108.915 91.3938L105.616 74.1726L106.41 64.182L113.182 65.4825L129.108 72.1591L140.723 89.2237L136.189 97.0013Z" fill="#C9E8FF" stroke="black" stroke-width="3.89968" stroke-linejoin="round"/>
<path d="M136.189 97.0015L120.004 102.534L108.914 91.394L113.132 76.7689L115.25 72.8258L126.873 73.1955L129.722 75.0817L140.723 89.2239L136.189 97.0015Z" fill="#777CFF" stroke="black" stroke-width="3.89968" stroke-linejoin="round"/>
<path d="M131.373 77.983L132.815 88.0134L143.134 96.2539L163.286 75.6827L156.11 64.2236L136.644 54.407L131.373 77.983Z" fill="#70699A" stroke="black" stroke-width="3.89968" stroke-linejoin="round"/>
<path d="M163.286 75.6828L156.11 64.2237L148.77 64.7967L147.145 85.1347L132.815 88.0135L143.134 96.254L163.286 75.6828Z" fill="#BDBBC9" stroke="black" stroke-width="3.89968" stroke-linejoin="round"/>
<path d="M188.83 76.8004L183.517 98.7179L161.021 86.7519L162.69 75.7582L166.881 67.7858L179.973 54.8929L187.033 67.1033L188.83 76.8004Z" fill="#C9E8FF" stroke="black" stroke-width="3.73544" stroke-linejoin="round"/>
<path d="M188.83 76.8004L183.517 98.7179L161.021 86.7519L167.346 85.5796L179.023 74.4752L179.973 54.8929L187.033 67.1033L188.83 76.8004Z" fill="#777CFF" stroke="black" stroke-width="3.73544" stroke-linejoin="round"/>
<path d="M111.361 136.842L106.751 152.19L87.2374 143.811L88.6852 136.112L92.3207 130.53L103.677 121.502L109.801 130.052L111.361 136.842Z" fill="#C9E8FF" stroke="black" stroke-width="3.24038" stroke-linejoin="round"/>
<path d="M111.361 136.842L106.751 152.19L87.2374 143.811L92.7237 142.99L102.853 135.214L103.677 121.502L109.801 130.052L111.361 136.842Z" fill="#777CFF" stroke="black" stroke-width="3.24038" stroke-linejoin="round"/>
<path d="M158.499 185.016C127.692 185.016 102.719 160.042 102.719 129.236C102.719 98.429 127.692 78.3916 158.499 78.3916C174.245 78.3916 192.028 93.5202 195.575 103.917C205.84 134.005 218.096 147.227 199.733 168.437C191.912 178.895 178.024 185.016 158.499 185.016Z" fill="#777CFF" stroke="black" stroke-width="3.89968" stroke-linejoin="round"/>
<path d="M128.525 118.801C128.525 111.886 134.131 106.28 141.046 106.28H145.922C155.529 106.28 163.318 114.068 163.318 123.676V131.322H141.046C134.131 131.322 128.525 125.716 128.525 118.801V118.801Z" fill="white" stroke="black" stroke-width="3.90218" stroke-linejoin="round"/>
<circle cx="147.404" cy="120.761" r="3.37817" fill="black"/>
<path d="M170.722 118.801C170.722 111.886 176.328 106.28 183.243 106.28H188.118C197.726 106.28 205.515 114.068 205.515 123.676V131.322H183.243C176.328 131.322 170.722 125.716 170.722 118.801V118.801Z" fill="white" stroke="black" stroke-width="3.90218" stroke-linejoin="round"/>
<circle cx="189.601" cy="120.761" r="3.37817" fill="black"/>
<rect x="134.672" y="144.44" width="73.0742" height="14.2251" rx="7.11253" fill="white" stroke="black" stroke-width="3.90218"/>
<path d="M149.69 144.577V157.857" stroke="black" stroke-width="3.90218"/>
<path d="M164.036 144.577V157.857" stroke="black" stroke-width="3.90218"/>
<path d="M178.383 144.577V157.857" stroke="black" stroke-width="3.90218"/>
<path d="M192.729 144.577V157.857" stroke="black" stroke-width="3.90218"/>
<rect x="49.3149" y="105.331" width="17.3841" height="68.8872" transform="rotate(-30 49.3149 105.331)" fill="#5BCEE7" stroke="black" stroke-width="3.89968" stroke-linejoin="round"/>
<rect width="27.305" height="24.0422" transform="matrix(0.866025 -0.5 -0.5 -0.866025 45.0195 107.811)" fill="#777CFF" stroke="black" stroke-width="3.89968" stroke-linejoin="round"/>
<path d="M21.1948 127.996C18.8837 109.665 29.0723 92.4749 34.3916 89.4037L42.9263 104.186C35.6085 108.411 30.9634 123.294 29.9447 129.983L21.1948 127.996Z" fill="#777CFF" stroke="black" stroke-width="3.89968" stroke-linejoin="round"/>
<path d="M98.0583 83.6182C83.3391 72.4515 63.3577 72.6799 58.0383 75.751L66.573 90.5335C73.8908 86.3086 89.1025 89.7275 95.4046 92.1896L98.0583 83.6182Z" fill="#777CFF" stroke="black" stroke-width="3.89968" stroke-linejoin="round"/>
<path d="M47.1541 81.069L55.9318 76.0012L54.5183 100.07L45.7406 105.138L47.1541 81.069Z" fill="white"/>
<defs>
<linearGradient id="paint0_linear_1856_16135" x1="240.156" y1="119.481" x2="11.0649" y2="119.481" gradientUnits="userSpaceOnUse">
<stop stop-color="#888DFF"/>
<stop offset="1" stop-color="#59D7FF"/>
</linearGradient>
</defs>
</svg>
