<svg width="241" height="240" viewBox="0 0 241 240" fill="none" xmlns="http://www.w3.org/2000/svg">
<circle cx="120.312" cy="120" r="120" fill="url(#paint0_linear_1856_16132)"/>
<path d="M116.479 132.26L125.723 131.664L125.029 97.8236L108.807 94.6593L93.7388 98.2339L85.3658 103.018L94.627 117.634L116.479 132.26Z" fill="#F34444" stroke="black" stroke-width="3.89968" stroke-linejoin="round"/>
<path d="M116.479 132.261L125.723 131.665L125.029 97.8243L108.806 94.66L97.0912 103.403L106.109 110.063L113.648 112.839L116.479 132.261Z" fill="#FFBEDF" stroke="black" stroke-width="3.89968" stroke-linejoin="round"/>
<path d="M136.345 97.0013L120.16 102.534L109.07 91.3938L105.772 74.1726L106.566 64.182L113.337 65.4825L129.264 72.1591L140.879 89.2237L136.345 97.0013Z" fill="#FFE3C9" stroke="black" stroke-width="3.89968" stroke-linejoin="round"/>
<path d="M136.345 97.0015L120.16 102.534L109.07 91.394L113.287 76.7689L115.405 72.8258L127.029 73.1955L129.878 75.0817L140.879 89.2239L136.345 97.0015Z" fill="#FFA740" stroke="black" stroke-width="3.89968" stroke-linejoin="round"/>
<path d="M131.529 77.983L132.971 88.0134L143.29 96.2539L163.441 75.6827L156.266 64.2236L136.8 54.407L131.529 77.983Z" fill="#70699A" stroke="black" stroke-width="3.89968" stroke-linejoin="round"/>
<path d="M163.442 75.6828L156.266 64.2237L148.925 64.7967L147.3 85.1347L132.971 88.0135L143.29 96.254L163.442 75.6828Z" fill="#BDBBC9" stroke="black" stroke-width="3.89968" stroke-linejoin="round"/>
<path d="M188.986 76.8004L183.672 98.7179L161.177 86.7519L162.846 75.7582L167.037 67.7858L180.129 54.8929L187.188 67.1033L188.986 76.8004Z" fill="#FFE3C9" stroke="black" stroke-width="3.73544" stroke-linejoin="round"/>
<path d="M188.986 76.8004L183.672 98.7179L161.177 86.7519L167.501 85.5796L179.179 74.4752L180.129 54.8929L187.188 67.1033L188.986 76.8004Z" fill="#FFA740" stroke="black" stroke-width="3.73544" stroke-linejoin="round"/>
<path d="M111.516 136.842L106.907 152.19L87.3932 143.811L88.8409 136.112L92.4764 130.53L103.833 121.502L109.957 130.052L111.516 136.842Z" fill="#FFE3C9" stroke="black" stroke-width="3.24038" stroke-linejoin="round"/>
<path d="M111.516 136.842L106.907 152.19L87.3932 143.811L92.8795 142.99L103.009 135.214L103.833 121.502L109.957 130.052L111.516 136.842Z" fill="#FFA740" stroke="black" stroke-width="3.24038" stroke-linejoin="round"/>
<path d="M158.655 185.016C127.848 185.016 102.875 160.042 102.875 129.236C102.875 98.429 127.848 78.3916 158.655 78.3916C174.401 78.3916 192.183 93.5202 195.73 103.917C205.996 134.005 218.252 147.227 199.889 168.437C192.068 178.895 178.179 185.016 158.655 185.016Z" fill="#FFA740" stroke="black" stroke-width="3.89968" stroke-linejoin="round"/>
<path d="M128.681 118.801C128.681 111.886 134.287 106.28 141.202 106.28H146.077C155.685 106.28 163.474 114.068 163.474 123.676V131.322H141.202C134.287 131.322 128.681 125.716 128.681 118.801V118.801Z" fill="white" stroke="black" stroke-width="3.90218" stroke-linejoin="round"/>
<circle cx="147.56" cy="120.761" r="3.37817" fill="black"/>
<path d="M170.878 118.801C170.878 111.886 176.484 106.28 183.399 106.28H188.274C197.882 106.28 205.67 114.068 205.67 123.676V131.322H183.399C176.484 131.322 170.878 125.716 170.878 118.801V118.801Z" fill="white" stroke="black" stroke-width="3.90218" stroke-linejoin="round"/>
<circle cx="189.756" cy="120.761" r="3.37817" fill="black"/>
<rect x="134.828" y="144.44" width="73.0742" height="14.2251" rx="7.11253" fill="white" stroke="black" stroke-width="3.90218"/>
<path d="M149.846 144.577V157.857" stroke="black" stroke-width="3.90218"/>
<path d="M164.192 144.577V157.857" stroke="black" stroke-width="3.90218"/>
<path d="M178.539 144.577V157.857" stroke="black" stroke-width="3.90218"/>
<path d="M192.885 144.577V157.857" stroke="black" stroke-width="3.90218"/>
<rect x="49.4707" y="105.331" width="17.3841" height="68.8872" transform="rotate(-30 49.4707 105.331)" fill="#F34444" stroke="black" stroke-width="3.89968" stroke-linejoin="round"/>
<rect width="27.305" height="24.0422" transform="matrix(0.866025 -0.5 -0.5 -0.866025 45.1748 107.811)" fill="#FFA740" stroke="black" stroke-width="3.89968" stroke-linejoin="round"/>
<path d="M21.3506 127.996C19.0395 109.665 29.228 92.4749 34.5474 89.4037L43.082 104.186C35.7642 108.411 31.1192 123.294 30.1005 129.983L21.3506 127.996Z" fill="#FFA740" stroke="black" stroke-width="3.89968" stroke-linejoin="round"/>
<path d="M98.2141 83.6182C83.4949 72.4515 63.5134 72.6799 58.1941 75.751L66.7287 90.5335C74.0465 86.3086 89.2583 89.7275 95.5604 92.1896L98.2141 83.6182Z" fill="#FFA740" stroke="black" stroke-width="3.89968" stroke-linejoin="round"/>
<path d="M47.3097 81.069L56.0873 76.0012L54.6738 100.07L45.8961 105.138L47.3097 81.069Z" fill="white"/>
<defs>
<linearGradient id="paint0_linear_1856_16132" x1="240.312" y1="119.481" x2="8.62346" y2="126.753" gradientUnits="userSpaceOnUse">
<stop stop-color="#FF9B26"/>
<stop offset="1" stop-color="#FFEE54"/>
</linearGradient>
</defs>
</svg>
