<svg width="114" height="36" viewBox="0 0 114 36" fill="none" xmlns="http://www.w3.org/2000/svg">
<path d="M72.8859 12.0222C71.4143 9.02091 68.2765 8.15944 65.2499 8.15944C61.6679 8.18723 57.7249 9.82681 57.7249 13.8285C57.7249 18.1914 61.3902 19.2474 65.361 19.7198C67.9433 19.9977 69.8593 20.748 69.8593 22.5821C69.8593 24.6941 67.6934 25.5 65.3887 25.5C63.0285 25.5 60.7793 24.5552 59.9186 22.4154L56.8641 23.9994C58.308 27.5564 61.3625 28.7792 65.3332 28.7792C69.6649 28.7792 73.4968 26.9173 73.4968 22.5821C73.4968 17.9413 69.7205 16.8853 65.6664 16.3851C63.3339 16.1072 61.3347 15.6348 61.3347 13.9396C61.3347 12.4946 62.6398 11.3552 65.361 11.3552C67.4713 11.3552 69.3039 12.4112 69.9704 13.5228L72.8859 12.0222Z" fill="#131023"/>
<path d="M79.4705 14.5232V28.279H76.0829V14.5232H79.4705ZM75.7774 10.7161C75.7774 13.3561 79.7759 13.3561 79.7759 10.7161C79.7759 8.07607 75.7774 8.07607 75.7774 10.7161Z" fill="#131023"/>
<path d="M91.922 8.43734C85.2023 8.43734 81.9258 13.5784 81.9258 18.6916C81.9258 23.8049 85.0912 28.7236 91.922 28.7236C98.7528 28.7236 101.835 23.6937 101.891 18.6638C101.946 13.5784 98.614 8.43734 91.922 8.43734ZM91.922 11.7721C96.5036 11.7721 98.3363 15.4403 98.2808 18.7194C98.2252 21.9152 96.5036 25.3611 91.922 25.3611C87.3404 25.3611 85.6188 21.943 85.5355 18.7472C85.4522 15.4681 87.3404 11.7721 91.922 11.7721Z" fill="#131023"/>
<path d="M106.186 19.9506C106.203 18.9001 107.386 18.3166 108.535 18.3166C110.035 18.3166 111.184 18.9168 111.184 20.184C111.184 21.5346 109.568 21.6846 108.685 21.6846C106.386 21.6846 103.954 22.485 103.954 25.1694C103.954 26.2032 103.954 27.2203 103.954 28.2374H113.4V26.1865H106.153V25.1861C106.153 23.9189 107.719 23.6688 108.685 23.6688C111.134 23.6688 113.367 23.1019 113.367 20.134C113.367 17.3662 110.834 16.4158 108.502 16.4158C106.353 16.4158 104.02 17.4829 104.004 19.9506H106.186Z" fill="#131023"/>
<path d="M41.209 1.91303C40.1333 2.00923 38.9993 2.1924 37.8314 2.44665C34.0625 3.26709 29.6355 4.89488 25.0445 7.18701C25.277 7.17212 25.5115 7.16455 25.7478 7.16455C27.8368 7.16455 29.7879 7.75561 31.4432 8.77974C33.8826 7.79975 36.1497 7.08596 38.1315 6.65454C39.5973 6.33547 40.8442 6.18466 41.8575 6.17198C41.3469 5.31537 41.0535 4.31402 41.0535 3.24409C41.0535 2.78583 41.1073 2.34014 41.209 1.91303Z" fill="#131023"/>
<path d="M46.7721 8.96719C47.7845 8.96719 48.7355 8.70389 49.5604 8.24197C49.4423 8.76444 49.2671 9.28745 49.0504 9.80053C48.2945 11.5898 46.9527 13.4747 45.2652 15.3326C44.7434 15.907 44.1801 16.4881 43.5783 17.0732C43.488 15.3687 43.1536 13.6746 42.5756 12.0443C43.5663 10.8436 44.2295 9.79175 44.5933 8.93052C44.644 8.8106 44.6878 8.69713 44.7255 8.58977C45.3609 8.83359 46.0509 8.96719 46.7721 8.96719Z" fill="#131023"/>
<path d="M6.23038 20.7059C6.75214 20.1315 7.31546 19.5504 7.91733 18.9653C8.00761 20.6698 8.34201 22.3639 8.91997 23.9942C7.92927 25.1949 7.2661 26.2467 6.90228 27.108C6.85163 27.2279 6.8078 27.3413 6.77013 27.4487C6.13467 27.2049 5.44466 27.0713 4.72347 27.0713C3.71106 27.0713 2.76009 27.3346 1.93521 27.7965C2.05335 27.274 2.22848 26.751 2.44521 26.238C3.20105 24.4487 4.54292 22.5638 6.23038 20.7059Z" fill="#131023"/>
<path d="M10.2866 34.1255C11.3622 34.0293 12.4963 33.8461 13.6642 33.5919C17.4331 32.7714 21.8601 31.1436 26.4511 28.8515C26.2186 28.8664 25.9841 28.8739 25.7478 28.8739C23.6588 28.8739 21.7077 28.2829 20.0524 27.2588C17.613 28.2387 15.3459 28.9525 13.364 29.384C11.8983 29.703 10.6514 29.8538 9.63809 29.8665C10.1487 30.7231 10.442 31.7245 10.442 32.7944C10.442 33.2526 10.3882 33.6983 10.2866 34.1255Z" fill="#131023"/>
<path d="M51.4956 4.72726C51.4956 7.33805 49.3808 9.45452 46.7721 9.45452C44.1634 9.45452 42.0486 7.33805 42.0486 4.72726C42.0486 2.11647 44.1634 0 46.7721 0C49.3808 0 51.4956 2.11647 51.4956 4.72726Z" fill="url(#paint0_linear_1855_10452)"/>
<path d="M9.44704 31.2727C9.44704 33.8835 7.33225 36 4.72352 36C2.11479 36 0 33.8835 0 31.2727C0 28.6619 2.11479 26.5455 4.72352 26.5455C7.33225 26.5455 9.44704 28.6619 9.44704 31.2727Z" fill="url(#paint1_linear_1855_10452)"/>
<path d="M35.0603 18.0192C35.0603 23.1667 30.8908 27.3395 25.7475 27.3395C20.6041 27.3395 16.4346 23.1667 16.4346 18.0192C16.4346 12.8718 20.6041 8.69905 25.7475 8.69905C30.8908 8.69905 35.0603 12.8718 35.0603 18.0192Z" fill="url(#paint2_linear_1855_10452)"/>
<defs>
<linearGradient id="paint0_linear_1855_10452" x1="26.4426" y1="27.6585" x2="36.0819" y2="18.0269" gradientUnits="userSpaceOnUse">
<stop stop-color="#FF5C39"/>
<stop offset="1" stop-color="#AD00FF"/>
</linearGradient>
<linearGradient id="paint1_linear_1855_10452" x1="26.4426" y1="27.6585" x2="36.0819" y2="18.0269" gradientUnits="userSpaceOnUse">
<stop stop-color="#FF5C39"/>
<stop offset="1" stop-color="#AD00FF"/>
</linearGradient>
<linearGradient id="paint2_linear_1855_10452" x1="26.4426" y1="27.6585" x2="36.0819" y2="18.0269" gradientUnits="userSpaceOnUse">
<stop stop-color="#FF5C39"/>
<stop offset="1" stop-color="#AD00FF"/>
</linearGradient>
</defs>
</svg>
