<svg width="120" height="121" viewBox="0 0 120 121" fill="none" xmlns="http://www.w3.org/2000/svg">
<circle cx="60" cy="60.398" r="60" fill="#FFD1F2"/>
<path d="M81.771 32.1891C73.5811 35.8673 63.1015 42.5295 52.4881 51.1665C41.8778 59.8009 33.2271 68.7053 27.961 75.9756C19.8371 59.3105 25.8859 38.959 42.1881 29.5469C55.0741 22.1072 70.6762 23.633 81.771 32.1891Z" fill="#D42BA3"/>
<path d="M92.0387 44.8198C86.7722 52.09 78.122 60.9943 67.512 69.6285C56.8982 78.2657 46.4182 84.9281 38.2282 88.6063C49.323 97.1629 64.9255 98.689 77.8119 91.2491C94.1143 81.8368 100.163 61.485 92.0387 44.8198Z" fill="#B205F5"/>
<path d="M67.2097 69.9734C93.5442 54.581 112.121 37.777 108.886 32.1736C105.651 26.57 81.8087 34.2564 55.3102 49.3676C60.8075 47.0222 67.3158 49.0995 70.3793 54.4056C73.4424 59.711 71.988 66.385 67.2097 69.9734Z" fill="#B205F5"/>
<path d="M64.688 71.4293C59.1912 73.7733 52.6842 71.6958 49.6211 66.3904C46.5576 61.0842 48.0128 54.4092 52.7926 50.8212C26.4567 66.214 7.87889 83.0187 11.1141 88.6222C14.3493 94.2257 38.1903 86.5397 64.688 71.4293Z" fill="#D42BA3"/>
</svg>
